<svg width="51" height="51" viewBox="0 0 51 51" fill="none" xmlns="http://www.w3.org/2000/svg">
<path fill-rule="evenodd" clip-rule="evenodd" d="M16.934 28.1501V23.0671H19.1634H24.2464V28.1501V37.6315V42.7309C22.4623 42.6045 20.7551 42.2086 19.1634 41.5791C12.8022 39.0665 8.302 32.8619 8.302 25.6072C8.302 16.5382 15.3368 9.1103 24.2464 8.48352V13.583C18.1463 14.196 13.385 19.3449 13.385 25.6072C13.385 29.9699 15.6969 33.7938 19.1634 35.9188V28.1473H16.934V28.1501Z" fill="#77ABD2"/>
<path fill-rule="evenodd" clip-rule="evenodd" d="M36.6089 8.65395C42.074 12.2662 45.6807 18.4652 45.6807 25.5055C45.6807 32.5458 42.0767 38.7448 36.6089 42.3571L39.2727 46.9699C46.3267 42.434 51.0001 34.5141 51.0001 25.5055C51.0001 16.4969 46.3267 8.57698 39.2727 4.04108L36.6089 8.65395Z" fill="#77ABD2"/>
<path fill-rule="evenodd" clip-rule="evenodd" d="M16.4612 7.45537C19.18 6.09185 22.2506 5.32212 25.5 5.32212C28.7329 5.32212 31.787 6.08085 34.4948 7.43063L37.1586 2.81501C33.6646 1.01714 29.7005 0 25.5 0C21.283 0 17.3024 1.02539 13.7974 2.837C13.0716 3.21362 12.3651 3.62322 11.6834 4.06307C4.65411 8.60446 0 16.5079 0 25.5C0 34.4921 4.65411 42.3955 11.6834 46.9369C12.3651 47.3795 13.0716 47.7864 13.7974 48.163C17.3024 49.9774 21.2802 51 25.5 51C29.7005 51 33.6646 49.9856 37.1586 48.185L34.4948 43.5694C31.787 44.9191 28.7329 45.6779 25.5 45.6779C22.2506 45.6779 19.18 44.9109 16.4612 43.5446C15.7299 43.1763 15.0234 42.7667 14.3472 42.3186C8.90686 38.7036 5.31937 32.5183 5.31937 25.4945C5.31937 18.4707 8.90686 12.2882 14.3472 8.67319C15.0234 8.22235 15.7299 7.81274 16.4612 7.44712V7.45537Z" fill="#77ABD2"/>
<path d="M26.6931 42.7337C35.6027 42.1042 42.6375 34.679 42.6375 25.61C42.6375 16.5409 35.6055 9.11579 26.6931 8.48627V42.7337V42.7337Z" fill="#77ABD2"/>
<path opacity="0.2" d="M29.926 17.2831L28.4388 14.3087L28.9666 13.0881L27.7296 11.7493L26.6904 11.7329V11.6531L27.2842 10.5838L26.6904 10.493V8.85187L27.2512 9.1955L28.0375 10.9879L28.8622 11.95L29.5384 13.1981L31.1549 12.4174L33.4256 13.3878L34.2365 14.3197L37.8707 13.7396C38.4095 14.3032 38.9126 14.9052 39.3717 15.5375L37.78 16.9698L35.4763 17.7202L35.1767 19.037L33.1067 19.1745L31.6139 19.6611L30.9514 18.1821L29.926 17.2776V17.2831ZM26.6904 22.8252L28.1364 22.2341L29.8216 26.0855L37.5436 27.7322L36.1663 29.9424L30.9294 31.4187L28.491 32.9774L28.4251 31.732L26.6904 31.053V22.8252V22.8252ZM26.6904 31.4681L27.7818 32.2296L26.7427 34.1374L26.6904 34.1072V31.4681ZM26.6904 35.8308L29.313 37.3621L27.5866 37.6012L26.6904 38.5771V35.8336V35.8308ZM26.6904 39.3826L27.9192 40.3365L30.0552 40.5262L29.6731 39.8032L31.6662 41.2354L30.0965 41.1282L27.922 40.3365L28.8127 41.4361L27.9935 41.9392L26.6932 41.5818V39.3826H26.6904Z" fill="white"/>
</svg>
