<svg xmlns="http://www.w3.org/2000/svg" width="300.36" height="55.903" viewBox="0 0 300.36 55.903">
  <g id="Layer_x0020_1" transform="translate(0 0)">
    <path id="Path_32" data-name="Path 32" d="M3819.113,882.829h5.2v3.415a7.586,7.586,0,0,1-4.358,1.431,7.206,7.206,0,0,1,0-14.407,7.664,7.664,0,0,1,5.562,2.5l3.48-3.122a12.823,12.823,0,0,0-9.042-3.74c-6.472,0-11.968,5.268-11.968,11.546s5.5,11.578,11.968,11.578a12.822,12.822,0,0,0,9.042-3.74v-9.2h-9.887Zm31.123-9.2V869.3h-17.2v22.343h17.2v-4.325h-12.391v-4.911h11.22v-4.326h-11.22v-4.455h12.391Zm14.636,18.408A11.566,11.566,0,1,0,3853,880.456,11.858,11.858,0,0,0,3864.872,892.033Zm0-4.358a7.208,7.208,0,1,1,6.959-7.22A7.191,7.191,0,0,1,3864.872,887.675Zm21.2,3.968h4.813V873.626h6.959V869.3h-18.732v4.325h6.959Zm29.953-22.343v8.781H3905.85V869.3h-4.781v22.343h4.781v-9.236h10.179v9.236h4.781V869.3Zm26.408,4.325V869.3h-17.2v22.343h17.2v-4.325h-12.391v-4.911h11.22v-4.326h-11.22v-4.455h12.391Zm22.538,18.017-5.5-7.805a7.27,7.27,0,0,0,5.074-6.992c0-4.423-3.578-7.545-8.423-7.545H3946.08v22.343h4.781v-7.252h3.544l5.106,7.252h5.463Zm-14.114-17.952h4.748c2.375,0,4,1.236,4,3.155s-1.626,3.155-4,3.155h-4.748v-6.309Zm17.464,17.952h4.78v-13.92l6.927,12.619,6.895-12.619v13.92h4.813V869.3h-4.813l-6.895,12.619L3973.1,869.3h-4.78Zm44.393,0h5.4l-9.107-22.343h-5.366l-9.106,22.343h5.366l1.431-3.512h9.953Zm-9.724-7.578,3.317-8.163,3.317,8.163h-6.635Zm22.408,3.252V869.3h-4.813v22.343h15.936v-4.325H4025.4Z" transform="translate(-3736.163 -852.52)" fill="#333"/>
    <g id="_2225408525712" transform="translate(0 0)">
      <path id="Path_33" data-name="Path 33" d="M1540.47,1540.46v26.846a28.109,28.109,0,0,0,3.923-.43v-22.742h22.536a27.965,27.965,0,0,0,.387-3.673Zm5.112,26.172a27.713,27.713,0,0,0,3.47-1.03v-16.81H1565.7a27.683,27.683,0,0,0,.995-3.469h-21.116v21.31Zm4.659-1.5a27.913,27.913,0,0,0,3.47-1.761v-9.919h9.818a27.788,27.788,0,0,0,1.718-3.47h-15v15.151Zm4.659-2.514a28.124,28.124,0,0,0,7.894-7.978H1554.9Z" transform="translate(-1511.413 -1511.403)" fill="#ea4235" fill-rule="evenodd"/>
      <path id="Path_34" data-name="Path 34" d="M26.865,1540.46v4.839c-1.683.514-2.727.213-5.134-.88l-.347-.158-.157-.071h0c-3.028-1.343-4.192-1.352-7.22,0l0,0-.5.233-.009,0-.223.1c-3.068,1.41-3.882,1.405-7.063-.106-2.637-1.283-3.955-1.636-5.916-1a28.1,28.1,0,0,1-.272-2.961H26.865Zm0,5.986v3.328c-1.683.514-2.727.213-5.134-.88l-.347-.158-.157-.071h0c-3.028-1.342-4.192-1.351-7.22,0l0,0-.5.233-.009,0-.223.1c-3.068,1.41-3.882,1.405-7.063-.105-2.187-1.064-3.466-1.488-4.957-1.241a27.774,27.774,0,0,1-.776-3.134c1.632-.563,2.667-.328,4.76.661v0l.5.237.492.24,0-.008c3.019,1.381,4.219,1.357,7.236,0v0l.3-.138.2-.094.009,0c3.139-1.451,3.946-1.5,6.895-.176l.4.182.5.23,0-.005c2.2.966,3.421,1.237,5.089.8Zm0,4.474v3.328c-1.683.514-2.727.213-5.134-.88l-.347-.158-.157-.071h0c-3.028-1.342-4.192-1.351-7.22,0l0,0-.5.233-.009,0-.223.1c-3.068,1.41-3.882,1.405-7.063-.105a13.778,13.778,0,0,0-3.106-1.2,27.833,27.833,0,0,1-1.5-3.448,6.52,6.52,0,0,1,3.628.933v0l.5.237.492.24,0-.008c3.019,1.381,4.219,1.357,7.236,0v0l.3-.138.2-.094.009,0c3.139-1.451,3.946-1.5,6.895-.176l.4.182.5.23,0-.005c2.2.966,3.421,1.237,5.089.8Zm0,4.475v3.328c-1.683.514-2.727.213-5.134-.88l-.347-.158-.157-.071h0c-3.028-1.343-4.192-1.351-7.22,0l0,0-.5.233-.009,0-.223.1c-2.6,1.195-3.581,1.374-5.755.481a28.079,28.079,0,0,1-3.658-4.893c.411.151.862.348,1.377.592v0l.5.237.492.24,0-.008c3.019,1.381,4.219,1.357,7.236,0v0l.3-.138.2-.094.009,0c3.139-1.451,3.946-1.5,6.895-.176l.4.182.5.23,0-.005c2.2.966,3.421,1.236,5.089.8Zm0,4.474v3.328c-1.683.514-2.727.213-5.134-.88l-.347-.158-.157-.071h0c-3.028-1.343-4.192-1.352-7.22,0l0,0-.5.233-.009,0-.223.1c-.237.109-.46.209-.672.3a28.043,28.043,0,0,1-3.437-2.67,7.611,7.611,0,0,0,4.3-.98v0l.3-.138.2-.094.009,0c3.139-1.451,3.946-1.5,6.895-.176l.4.181.5.23,0,0c2.2.966,3.421,1.236,5.089.8Zm0,4.474v2.962a27.822,27.822,0,0,1-13.139-3.872l.04-.018.2-.094.009,0c3.139-1.451,3.946-1.5,6.895-.176l.4.182.5.23,0-.005c2.2.966,3.421,1.236,5.089.8Z" transform="translate(-0.019 -1511.403)" fill="#669df7" fill-rule="evenodd"/>
      <path id="Path_35" data-name="Path 35" d="M1540.47,26.846h3.511V.359A28.066,28.066,0,0,0,1540.47,0V26.846Zm4.7,0h3.469V1.554a27.706,27.706,0,0,0-3.469-.972V26.845Zm4.658,0h3.47V3.693a27.786,27.786,0,0,0-3.47-1.69Zm4.659,0h3.469V7.055a28.071,28.071,0,0,0-3.469-2.637Zm4.658,0h3.47V12.4a28.11,28.11,0,0,0-3.47-4.221Zm4.659,0h3.511a27.81,27.81,0,0,0-3.511-12.509Z" transform="translate(-1511.413 0)" fill="#7fb902" fill-rule="evenodd"/>
      <path id="Path_36" data-name="Path 36" d="M26.846,26.846H20.737a7.3,7.3,0,0,1,6.109-6.109Zm-7.5,0H14.1A13.9,13.9,0,0,1,26.846,14.1v5.242A8.685,8.685,0,0,0,19.341,26.846Zm-6.628,0h-5.3A20.572,20.572,0,0,1,26.846,7.411v5.3A15.28,15.28,0,0,0,12.713,26.846Zm-6.687,0H0A27.974,27.974,0,0,1,26.846,0V6.027A21.954,21.954,0,0,0,6.027,26.846Z" transform="translate(0 0)" fill="#ffb901" fill-rule="evenodd"/>
    </g>
  </g>
</svg>
